<svg width="232" height="39" viewBox="0 0 232 39" fill="none" xmlns="http://www.w3.org/2000/svg">
<path d="M0.7 3.6H11.8C16.2667 3.6 19.4333 4.1 21.3 5.1C23.2 6.06667 24.3667 7.63333 24.8 9.8C25.2667 11.9667 25.5 15.6333 25.5 20.8C25.5 25.9667 25.2667 29.6333 24.8 31.8C24.3667 33.9667 23.2 35.55 21.3 36.55C19.4333 37.5167 16.2667 38 11.8 38H0.7V3.6ZM11.8 30.85C13.4 30.85 14.4833 30.7 15.05 30.4C15.6167 30.0667 15.9667 29.2833 16.1 28.05C16.2667 26.7833 16.35 24.3667 16.35 20.8C16.35 17.2 16.2667 14.7833 16.1 13.55C15.9667 12.3167 15.6167 11.55 15.05 11.25C14.5167 10.9167 13.4333 10.75 11.8 10.75H9.85V30.85H11.8ZM35.4398 38.4C33.2065 38.4 31.5732 37.7833 30.5398 36.55C29.5065 35.2833 28.9898 33.3167 28.9898 30.65C28.9898 28.65 29.2065 27.1 29.6398 26C30.0732 24.9 30.8232 24.1 31.8898 23.6C32.9565 23.1 34.4732 22.85 36.4398 22.85C37.7732 22.85 39.6065 22.9167 41.9398 23.05V22.05C41.9398 20.8833 41.8232 20.0667 41.5898 19.6C41.3565 19.1333 40.9232 18.8333 40.2898 18.7C39.6565 18.5667 38.5232 18.5 36.8898 18.5C34.9565 18.5 32.7565 18.6 30.2898 18.8V12.9C33.3565 12.3667 36.4232 12.1 39.4898 12.1C42.6898 12.1 45.0565 12.4667 46.5898 13.2C48.1565 13.9 49.1732 14.9833 49.6398 16.45C50.1398 17.8833 50.3898 19.95 50.3898 22.65V38H42.2398L42.0398 35.1H41.5898C40.8898 36.3667 40.0232 37.2333 38.9898 37.7C37.9565 38.1667 36.7732 38.4 35.4398 38.4ZM39.2898 32.25C39.8898 32.25 40.3565 32.1833 40.6898 32.05C41.0565 31.8833 41.3398 31.6167 41.5398 31.25C41.8065 30.75 41.9398 29.8167 41.9398 28.45V27.2H39.1898C38.5232 27.2 38.0232 27.2667 37.6898 27.4C37.3898 27.5 37.1898 27.7333 37.0898 28.1C36.9898 28.4667 36.9398 29.05 36.9398 29.85C36.9398 30.8167 37.0732 31.4667 37.3398 31.8C37.6065 32.1 38.2565 32.25 39.2898 32.25ZM58.7992 38L52.5992 12.5H61.0992L64.4492 30.2H64.9492L68.1492 12.5H76.5492L70.3492 38H58.7992ZM79.2551 7.6V0.849998H87.8551V7.6H79.2551ZM79.3051 38V12.5H87.8551V38H79.3051ZM104.02 3.6H119.27C125.404 3.6 128.47 6.48333 128.47 12.25C128.47 14.6833 128.037 16.5333 127.17 17.8C126.304 19.0333 124.937 19.8833 123.07 20.35V20.55C125.037 21.0167 126.454 21.85 127.32 23.05C128.22 24.2167 128.67 26.1333 128.67 28.8C128.67 31.8667 127.92 34.1667 126.42 35.7C124.954 37.2333 122.554 38 119.22 38H104.02V3.6ZM116.17 17.4C117.104 17.4 117.787 17.3167 118.22 17.15C118.654 16.9833 118.954 16.6667 119.12 16.2C119.287 15.7333 119.37 15 119.37 14C119.37 12.9667 119.287 12.2333 119.12 11.8C118.987 11.3333 118.704 11.0167 118.27 10.85C117.837 10.6833 117.137 10.6 116.17 10.6H113.07V17.4H116.17ZM116.27 31C117.237 31 117.937 30.9167 118.37 30.75C118.837 30.5833 119.137 30.2667 119.27 29.8C119.437 29.3 119.52 28.5167 119.52 27.45C119.52 26.3833 119.437 25.6 119.27 25.1C119.104 24.6 118.804 24.2667 118.37 24.1C117.937 23.9333 117.237 23.85 116.27 23.85H113.07V31H116.27ZM146.071 35.05H145.621C144.487 37.2833 142.404 38.4 139.371 38.4C137.504 38.4 136.087 38.05 135.121 37.35C134.187 36.65 133.554 35.65 133.221 34.35C132.921 33.0167 132.771 31.1833 132.771 28.85V12.5H141.221V26.1C141.221 27.9333 141.254 29.1833 141.321 29.85C141.421 30.5167 141.604 30.95 141.871 31.15C142.171 31.3167 142.721 31.4 143.521 31.4C144.321 31.4 144.871 31.2833 145.171 31.05C145.504 30.7833 145.704 30.2833 145.771 29.55C145.871 28.8167 145.921 27.55 145.921 25.75V12.5H154.371V38H146.271L146.071 35.05ZM179.74 27.25H166.74C166.74 28.8833 166.84 30 167.04 30.6C167.24 31.2 167.674 31.5833 168.34 31.75C169.007 31.9167 170.257 32 172.09 32C173.39 32 175.674 31.9 178.94 31.7V37.55C178.007 37.7833 176.707 37.9833 175.04 38.15C173.374 38.3167 171.724 38.4 170.09 38.4C166.457 38.4 163.807 37.9667 162.14 37.1C160.507 36.2333 159.474 34.95 159.04 33.25C158.607 31.5167 158.39 28.8667 158.39 25.3C158.39 21.7667 158.607 19.1333 159.04 17.4C159.474 15.6333 160.457 14.3167 161.99 13.45C163.524 12.55 165.974 12.1 169.34 12.1C172.707 12.1 175.107 12.5167 176.54 13.35C178.007 14.15 178.907 15.3833 179.24 17.05C179.574 18.7167 179.74 21.4667 179.74 25.3V27.25ZM169.34 18.1C168.54 18.1 167.957 18.2 167.59 18.4C167.257 18.6 167.024 19.0333 166.89 19.7C166.79 20.3333 166.74 21.4167 166.74 22.95H171.89C171.89 21.3833 171.824 20.2833 171.69 19.65C171.59 18.9833 171.374 18.5667 171.04 18.4C170.707 18.2 170.14 18.1 169.34 18.1ZM197.045 24.4C197.045 22.5667 196.995 21.3167 196.895 20.65C196.828 19.9833 196.645 19.5667 196.345 19.4C196.078 19.2 195.545 19.1 194.745 19.1C193.945 19.1 193.378 19.2333 193.045 19.5C192.745 19.7333 192.545 20.2167 192.445 20.95C192.378 21.65 192.345 22.9167 192.345 24.75V38H183.895V12.5H191.995L192.195 15.45H192.595C193.762 13.2167 195.862 12.1 198.895 12.1C200.762 12.1 202.162 12.45 203.095 13.15C204.062 13.85 204.695 14.8667 204.995 16.2C205.328 17.5 205.495 19.3167 205.495 21.65V38H197.045V24.4ZM220.514 38.4C217.048 38.4 214.548 38.0333 213.014 37.3C211.481 36.5333 210.498 35.3 210.064 33.6C209.664 31.8667 209.464 29.0833 209.464 25.25C209.464 21.4167 209.664 18.65 210.064 16.95C210.498 15.2167 211.481 13.9833 213.014 13.25C214.548 12.4833 217.048 12.1 220.514 12.1C224.014 12.1 226.514 12.4833 228.014 13.25C229.548 13.9833 230.531 15.2167 230.964 16.95C231.398 18.65 231.614 21.4167 231.614 25.25C231.614 29.0833 231.398 31.8667 230.964 33.6C230.531 35.3 229.548 36.5333 228.014 37.3C226.514 38.0333 224.014 38.4 220.514 38.4ZM220.514 32C221.448 32 222.081 31.8833 222.414 31.65C222.748 31.3833 222.948 30.8333 223.014 30C223.114 29.1667 223.164 27.5833 223.164 25.25C223.164 22.9167 223.114 21.3333 223.014 20.5C222.948 19.6667 222.748 19.1333 222.414 18.9C222.081 18.6333 221.448 18.5 220.514 18.5C219.614 18.5 218.998 18.6333 218.664 18.9C218.331 19.1333 218.114 19.6667 218.014 20.5C217.948 21.3333 217.914 22.9167 217.914 25.25C217.914 27.5833 217.948 29.1667 218.014 30C218.114 30.8333 218.331 31.3833 218.664 31.65C218.998 31.8833 219.614 32 220.514 32Z" fill="#2A0000"/>
</svg>
